<?xml version="1.0" encoding="utf-8"?>
<!-- Generator: Adobe Illustrator 24.2.1, SVG Export Plug-In . SVG Version: 6.00 Build 0)  -->
<svg version="1.1" id="katman_1" xmlns="http://www.w3.org/2000/svg" xmlns:xlink="http://www.w3.org/1999/xlink" x="0px" y="0px"
	 viewBox="0 0 100 35" style="enable-background:new 0 0 100 35;" xml:space="preserve">
<style type="text/css">
	.st0{fill:#4DBFD1;}
	.st1{opacity:0.49;}
	.st2{fill:#4E4E4E;}
	.st3{fill:#FFFFFF;}
	.st4{enable-background:new    ;}
</style>
<path class="st0" d="M16.6,3C8.7,3,2.2,9.4,2.2,17.4c0,2,0.4,3.9,1.1,5.6c0.1,0.2,0.1,0.3,0.2,0.5c2.3,4.9,7.3,8.4,13.1,8.4
	c7.9,0,14.4-6.4,14.4-14.4S24.6,3,16.6,3z"/>
<g class="st1">
	<g>
		<polygon class="st2" points="23.7,9.9 10.8,9.9 2.3,18.6 2.5,19.8 8.8,16.4 14.3,11.3 		"/>
		<polygon class="st2" points="21,16.5 9.9,30.1 8.7,29.3 8.7,26.3 		"/>
		<polyline class="st2" points="14.3,16.4 14.1,12.4 23.7,12.7 21,16.5 19.4,16.4 17.7,19.4 14,19.4 		"/>
		<g>
			<polygon class="st2" points="20.5,16.4 8.7,29.3 7.4,28.4 8.5,21.6 14,16.4 			"/>
			<path class="st2" d="M16.1,21.1c0.3-0.3,0.6-0.6,0.9-0.9c-0.5,0-0.9,0-1.4,0c-0.3,0-0.3,0-0.3-0.5c0-0.2,0-0.5,0-0.7
				c0-0.5-0.1-0.5,0.3-0.5c0.9,0,1.8,0,2.8,0c0.2-0.3,0.4-0.6,0.7-0.9c0.3-0.4,0.7-0.8,1.1-1.2c-1.5,0-3,0-4.5,0
				c-0.2,0-0.3-0.1-0.3-0.3c0-0.4,0-0.8,0-1.2c0-0.3,0-0.3,0.3-0.3c1.2,0,2.5,0,3.7,0c0.1,0,0.2,0,0.3-0.1c0-0.1,0.1-0.1,0.2-0.2
				c0.5-0.5,1-1,1.5-1.5l0.1-0.1c0-0.1-0.1,0-0.2,0c-2.6,0-5.2,0-7.8,0c0,0.1,0,0.1,0,0.2c0,2.5,0,5,0,7.5c0,0.6,0,1.2,0,1.7
				c0.5,0,1,0,1.4,0C15.1,21.8,15.6,21.5,16.1,21.1z"/>
			<g>
				<path class="st2" d="M9.4,26.7c0.8-0.6,1.6-1.1,2.4-1.7c0.5-0.4,1-0.8,1.4-1.2c-0.3,0-0.5,0-0.8,0c-0.2,0-0.4,0.1-0.6,0.2
					c-0.5,0.5-1,1.1-1.5,1.6c-0.2,0.2-0.4,0.2-0.6,0c-0.3-0.3-0.6-0.6-0.9-0.9c-0.1-0.1-0.1-0.2-0.1-0.4c0.1-0.2,0-0.3,0-0.5
					c-0.1-0.2,0-0.4,0.1-0.5C9,23.2,9.2,23,9.3,22.8c0.2-0.2,0.4-0.4,0.6-0.5c0.1-0.1,0.3-0.2,0.4-0.1c0.2,0.1,0.3,0.1,0.5,0.1
					s0.3,0,0.4,0.1c0.1,0.1,0.1,0.1,0.2,0.2c0,0,0.1,0.1,0.1,0s0-0.2,0-0.3c0-3,0-6.1,0-9.1c0-0.8,0-1.5,0-2.3c0-0.1,0-0.2-0.1-0.2
					l0,0c-0.4,0.4-0.8,0.8-1.2,1.2c-0.3,0.3-0.5,0.5-0.8,0.8c-0.4,0.4-0.8,0.8-1.2,1.2c-0.7,0.7-1.4,1.4-2.1,2.2
					c-0.6,0.6-1.2,1.2-1.8,1.8c0.1,0,0,0.1-0.1,0.1c-0.2,0.1-0.4,0.3-0.5,0.5c-0.3,0.3-0.6,0.6-0.9,1c-0.1,0.1-0.3,0.2-0.3,0.4
					C2.7,21,3,22,3.4,23c0.5,1.1,1,2.1,1.7,3s1.4,1.7,2.3,2.4C8,27.7,8.8,27.2,9.4,26.7z"/>
				<path class="st2" d="M8.4,24.9c-0.1,0.2,0,0.3,0.1,0.4C8.7,25.6,9,25.8,9.2,26s0.3,0.3,0.5,0.5c0.3-0.2,0.6-0.4,0.8-0.6
					c0-0.3,0.2-0.5,0.4-0.7c0,0,0-0.1,0.1-0.1c0.5-0.4,0.8-1.1,1.6-0.9c-0.1-0.1-0.3,0-0.4-0.1c-0.1,0-0.1-0.1-0.1-0.1
					c0-0.4,0-0.8,0-1.2c-0.2-0.2-0.3-0.3-0.5-0.5S11.2,22,11,22.1s-0.4,0.1-0.6-0.1c-0.1,0-0.4,0-0.5,0.2c-0.5,0.5-0.9,1-1.4,1.5
					c-0.2,0.2-0.2,0.4-0.1,0.6C8.5,24.5,8.6,24.7,8.4,24.9z"/>
			</g>
		</g>
	</g>
</g>
<g>
	<rect x="15.2" y="16.5" class="st3" width="7.6" height="2.7"/>
</g>
<rect x="10.8" y="10" class="st3" width="3.7" height="15.1"/>
<rect x="10.8" y="9.9" class="st3" width="12.9" height="2.8"/>
<path class="st3" d="M23.7,12.7"/>
<g class="st4">
	<path class="st3" d="M33,23.2v-0.6l3-0.2V23c0,1.2,0.8,1.9,2,1.9s2-0.6,2-1.5c0-1-0.5-1.7-2.8-3.4c-3.1-2.2-3.9-3.5-3.9-5.2
		c0-2.3,1.7-3.9,4.7-3.9c2.9,0,4.7,1.5,4.7,3.9v0.4l-3,0.2v-0.5c0-1.2-0.6-1.9-1.7-1.9s-1.7,0.5-1.7,1.5c0,1,0.6,1.7,2.8,3.4
		c3,2.3,3.9,3.5,3.9,5.2c0,2.3-2,3.9-5,3.9C35,27.1,33,25.4,33,23.2z"/>
	<path class="st3" d="M59.5,11v15.8h-3.1V16l-2.9,10.8h-2.1L48.5,16v10.8h-3V11h4.4l2.7,10.1L55.1,11H59.5z"/>
	<path class="st3" d="M69,23.3h-3.3L65,26.8h-3.1L65.3,11h4.1l3.4,15.8h-3.1L69,23.3z M68.6,21l-1.2-6.6L66.1,21H68.6z"/>
	<path class="st3" d="M82.1,26.8l-2.2-6.5h-1.6v6.5h-3.1V11H80c2.9,0,4.8,1.5,4.8,3.8v1.7c0,1.5-0.8,2.6-2.1,3.2l2.6,7.1H82.1z
		 M78.2,18.1h1.6c1.2,0,1.9-0.5,1.9-1.5v-1.8c0-0.9-0.7-1.5-1.9-1.5h-1.6V18.1z"/>
	<path class="st3" d="M86.7,11h9.8v2.3h-3.4v13.5h-3.1V13.3h-3.4V11z"/>
</g>
</svg>
