<svg xmlns="http://www.w3.org/2000/svg" viewBox="0 0 26.29 26.29"><g id="Capa_2" data-name="Capa 2"><g id="Capa_1-2" data-name="Capa 1"><path d="M22.75,0H3.54A3.55,3.55,0,0,0,0,3.54V22.75a3.54,3.54,0,0,0,3.54,3.54H13l0-9.39H10.59a.58.58,0,0,1-.58-.58v-3a.58.58,0,0,1,.58-.57H13V9.79c0-3.4,2.08-5.24,5.11-5.24H20.6a.57.57,0,0,1,.58.57V7.67a.58.58,0,0,1-.58.58H19.08c-1.65,0-2,.78-2,1.93v2.54h3.62a.57.57,0,0,1,.57.64l-.36,3a.57.57,0,0,1-.57.51H17.13l0,9.39h5.64a3.54,3.54,0,0,0,3.54-3.54V3.54A3.55,3.55,0,0,0,22.75,0Z" style="fill:#fff"/></g></g></svg>