<svg xmlns="http://www.w3.org/2000/svg" viewBox="0 0 524.91 459.36"><defs><style>.cls-1{fill:#e13d39;}.cls-2{fill:#00ab56;opacity:0.4;}.cls-12,.cls-13,.cls-14,.cls-15,.cls-16,.cls-17,.cls-18,.cls-2{isolation:isolate;}.cls-3{fill:#002a56;}.cls-4{fill:#efe044;}.cls-13,.cls-14,.cls-15,.cls-16,.cls-17,.cls-18,.cls-5{fill:#fff;}.cls-11,.cls-6,.cls-9{fill:none;stroke-miterlimit:10;}.cls-6,.cls-9{stroke:#d43c38;}.cls-6{stroke-width:1.33px;}.cls-7{fill:#94bd5d;}.cls-8{fill:#0e0e1b;}.cls-9{stroke-width:1.62px;}.cls-10{fill:#eba0a7;}.cls-11{stroke:#0e0e1b;stroke-width:0.59px;}.cls-13,.cls-14{font-size:7.03px;}.cls-13,.cls-14,.cls-15,.cls-16,.cls-17,.cls-18{font-family:ArialMT, Arial;}.cls-13{letter-spacing:-0.05em;}.cls-14{letter-spacing:-0.11em;}.cls-15,.cls-16,.cls-17,.cls-18{font-size:7.79px;}.cls-15{letter-spacing:-0.05em;}.cls-16{letter-spacing:-0.11em;}.cls-17{letter-spacing:-0.05em;}.cls-19{fill:#eff2f4;}.cls-20{fill:#00bd56;}.cls-21{font-size:48.1px;fill:#666;font-family:MyriadPro-Regular, Myriad Pro;}.cls-22{letter-spacing:-0.01em;}.cls-23{letter-spacing:-0.01em;}.cls-24{letter-spacing:-0.01em;}.cls-25{letter-spacing:-0.04em;}.cls-26{letter-spacing:0em;}.cls-27{letter-spacing:0em;}.cls-28{letter-spacing:0em;}</style></defs><g id="Capa_2" data-name="Capa 2"><g id="Capa_1-2" data-name="Capa 1"><path class="cls-1" d="M275.67,284.28c-2.91,7.08-12.73,9.15-22,4.63a22.59,22.59,0,0,1-11.35-12,2.73,2.73,0,0,1,1.47-3.57,2.62,2.62,0,0,1,1.38-.19l14.56,1.46-3.84-9.35a2.75,2.75,0,0,1,1.29-3.67,2.72,2.72,0,0,1,1.9-.18,23.19,23.19,0,0,1,5.11,1.81c9.21,4.53,14.34,13.94,11.44,21"/><path class="cls-1" d="M341.17,352.44a49.46,49.46,0,0,0,4,19.67h0l.3.7c4.89,10.77,13.52,18.76,23.82,21.44a29.59,29.59,0,0,0,7.66,1h1a30.39,30.39,0,0,0,10.92-2.4h0c.76-.32,1.5-.67,2.23-1.05a34.86,34.86,0,0,0,6.81-4.61h0a41.79,41.79,0,0,0,10.87-15.06h0c.15-.36.3-.71.44-1.06.08-.19.16-.39.23-.59a49.77,49.77,0,0,0,3.31-18c0-1.37-.06-2.72-.16-4.05a48.43,48.43,0,0,0-4.63-17.34,40.82,40.82,0,0,0-10.84-14h0a31,31,0,0,0-39.23-.83,40.76,40.76,0,0,0-11.92,14.82,48.65,48.65,0,0,0-4.64,17.45C341.21,349.81,341.16,351.12,341.17,352.44Z"/><path class="cls-2" d="M357.86,316.24c20,16.28,38.91,1.1,39.23.84a31,31,0,0,0-39.23-.84Z"/><path class="cls-3" d="M341.32,348.51c2.43,2,34,26.66,71.24-.12a48.43,48.43,0,0,0-4.63-17.34s-27.73,20-62,0A48.64,48.64,0,0,0,341.32,348.51Z"/><path class="cls-3" d="M345.47,372.79c4.88,10.77,13.52,18.76,23.81,21.44a37.17,37.17,0,0,0,7.49,1,35.52,35.52,0,0,0,11.87-2.4h0c.82-.32,1.63-.67,2.42-1.05a34.86,34.86,0,0,0,6.81-4.61h0a41.79,41.79,0,0,0,10.87-15.06h0c.15-.36.3-.71.44-1.06C398.63,374.65,374,385.36,345.47,372.79Z"/><path class="cls-1" d="M395,459.35h35.51c0-6.89-8-12.48-17.77-12.49S395,452.44,395,459.34"/><path class="cls-1" d="M354.69,459.33h-35.5c0-6.89,7.95-12.48,17.76-12.5s17.76,5.59,17.76,12.49"/><ellipse class="cls-3" cx="377.82" cy="290.89" rx="32.44" ry="32.79"/><circle class="cls-4" cx="377.99" cy="291.06" r="2.46"/><circle class="cls-4" cx="377.99" cy="298.6" r="2.46"/><path class="cls-4" d="M361.39,277.49a33.93,33.93,0,0,1,2.18-9.58c4.24.8,11.36,6.7,11.85,7.1a3.57,3.57,0,0,1,2.13-.35c1.43,0,1.9.26,2.1.43.51-.39,7.8-6.07,12.08-6.74a33.71,33.71,0,0,1,1.88,9.63,34.26,34.26,0,0,1-2.17,9.58c-4.26-.81-11.38-6.69-11.87-7.11a3.55,3.55,0,0,1-2.1.35c-1.43,0-1.92-.26-2.11-.42-.5.39-7.8,6.07-12.07,6.74a34.08,34.08,0,0,1-1.9-9.63"/><path class="cls-1" d="M455.67,90.12c-17.66-4.19-32.05-1.49-35.62,2.78l-8.31,9.23a59.62,59.62,0,0,0-11.15,18.09l-17.1,43.84a2.14,2.14,0,0,0,4,1.56l17.08-43.84A55.3,55.3,0,0,1,414.91,105l8-8.92a3.4,3.4,0,0,1,3.31-1l59.92,14.21c1.48-6.23-12.2-14.78-30.48-19.14"/><path class="cls-1" d="M342.49,102.85,332.51,92c-4.05-4.66-18.18-6.46-34.37-3.85-18.59,2.94-32.86,10.46-31.85,16.79l58.42-9.28a9,9,0,0,1,8.17,2.9l6.46,7.14a55.49,55.49,0,0,1,10.34,16.8l17,43.84a2.15,2.15,0,0,0,4-1.53L353.64,121a59.11,59.11,0,0,0-11.15-18.09"/><path class="cls-1" d="M447.22,212.3c0-30.41-31.11-55.07-69.49-55.07s-69.48,24.64-69.48,55.07,31.1,55.06,69.48,55.06,69.49-24.66,69.49-55.06"/><path class="cls-5" d="M317.06,187.77c0,14.38,9.75,26,21.8,26s21.79-11.63,21.79-26-9.76-26-21.79-26-21.8,11.63-21.8,26"/><path class="cls-6" d="M317.06,187.77c0,14.38,9.75,26,21.8,26s21.79-11.63,21.79-26-9.76-26-21.79-26S317.06,173.4,317.06,187.77Z"/><path class="cls-7" d="M321.47,187.77c0,11.09,7.52,20.07,16.8,20.07s16.81-9.05,16.81-20.07-7.54-20.07-16.8-20.07-16.8,9.05-16.8,20.07"/><path class="cls-8" d="M326.05,192.76c0,8.05,5.47,14.57,12.22,14.57s12.19-6.46,12.19-14.57-5.46-14.58-12.19-14.58-12.22,6.47-12.22,14.58"/><path class="cls-5" d="M328.15,180.62a4.21,4.21,0,0,0,3.78,4.52,4.61,4.61,0,0,0,0-9,4.21,4.21,0,0,0-3.8,4.54"/><path class="cls-5" d="M328.59,201.52a2.4,2.4,0,1,0,2.36-2.83,2.59,2.59,0,0,0-2.37,2.78h0v.05"/><path class="cls-5" d="M434.92,187.77c0,14.38-9.75,26-21.8,26s-21.78-11.63-21.78-26,9.75-26,21.78-26,21.8,11.63,21.8,26"/><path class="cls-9" d="M434.92,187.77c0,14.38-9.75,26-21.8,26s-21.78-11.63-21.78-26,9.75-26,21.78-26S434.92,173.4,434.92,187.77Z"/><path class="cls-7" d="M430.53,187.77c0,11.09-7.52,20.07-16.8,20.07s-16.8-9.05-16.8-20.07,7.52-20.07,16.8-20.07,16.8,9.05,16.8,20.07"/><path class="cls-8" d="M425.93,192.76c0,8.05-5.47,14.57-12.21,14.57s-12.2-6.46-12.2-14.57,5.47-14.58,12.2-14.58,12.21,6.47,12.21,14.58"/><path class="cls-5" d="M423.82,180.62a3.87,3.87,0,1,1-3.8-4.54,4.2,4.2,0,0,1,3.8,4.54"/><path class="cls-5" d="M423.39,201.52a2.4,2.4,0,1,1-2.36-2.83,2.59,2.59,0,0,1,2.37,2.78h0v.05"/><path class="cls-8" d="M404.35,230.41a1,1,0,0,1,.95,1.64l-6.2,7.49-6.66,8.06-1,1.13L386.29,255a11,11,0,0,1-15.55,1.46h0a11.19,11.19,0,0,1-1.46-1.46l-4-4.8-.66-.78-1.53-1.83-12.92-15.5a1,1,0,0,1,0-1.43,1,1,0,0,1,1-.27c6.13,1.12,20.87,3.66,26.61,3.66s20.48-2.58,26.61-3.66"/><path class="cls-10" d="M399.1,239.53l-6.69,8.06-1,1.13-5.17,6.3a11.06,11.06,0,0,1-15.57,1.44h0a10.31,10.31,0,0,1-1.44-1.44l-4-4.8-.66-.78a12.36,12.36,0,0,1,9.12-6.13,13.11,13.11,0,0,1,7.56,1,12.3,12.3,0,0,1,9.24-6.33,12.89,12.89,0,0,1,8.57,1.54"/><path class="cls-8" d="M414.16,156.63a30.91,30.91,0,0,0-21.35,8.52,10.18,10.18,0,0,1-.89.85h0a22.49,22.49,0,0,1-15.2,5.88A22.85,22.85,0,0,1,362,166.54a18.14,18.14,0,0,0-2.22-2.16h0a31,31,0,0,0-50.75,16.4h2.06a29,29,0,0,1,56.42,0h2.05c-.09-.45-.21-.9-.32-1.29,1.29-2.83,4.08-2.71,7.36-2.71s6.26,0,7.5,2.91h0c-.1.37-.19.74-.27,1.13h2.07a29,29,0,0,1,56.41,0h2.1a31,31,0,0,0-30.29-24.17m-44.9,22.79A31,31,0,0,0,362,166.52l-.07-.08h0a31,31,0,0,1,7.26,12.92h0"/><path class="cls-11" d="M369.42,187.67a30.07,30.07,0,1,0-30.07,30.07h0a30.07,30.07,0,0,0,30.07-30.07Z"/><path class="cls-11" d="M444.43,187.67a30.07,30.07,0,1,0-30.08,30.07,30.07,30.07,0,0,0,30.08-30.07h0Z"/><path class="cls-1" d="M437,371.82s-5.47-36.18-9.46-46c-4.23-10.44-23.45-35-23.45-35l2-1.17s22.95,23.61,28.43,33.75c5.87,10.8,17,49.85,17,49.85Z"/><path class="cls-1" d="M442.26,363.67c8.15.05,14.71,8.26,14.67,18.39a20,20,0,0,1-6.16,14.82,3.09,3.09,0,0,1-4.37-.25,3,3,0,0,1-.58-1l-5.39-13.88-7.12,7a3.11,3.11,0,0,1-5.21-1.49,23,23,0,0,1-.62-5.36c0-10.11,6.67-18.29,14.84-18.25"/><path class="cls-1" d="M276.05,280.52s30.23,9,39.11,10.07c8.24,1,29-2.07,34.1-2.86a1.06,1.06,0,0,1,1.17.87v.11a1,1,0,0,1-.74,1c-4.47,1.23-26.73,7.18-35.39,7.12C304,296.8,270.58,289,270.58,289Z"/><polygon class="cls-1" points="406.33 451.25 392.3 368.94 390.08 368.94 395.04 459.36 406.33 451.25"/><polygon class="cls-1" points="343.39 451.22 357.42 368.91 359.64 368.91 354.68 459.33 343.39 451.22"/><g class="cls-12"><text class="cls-13" transform="translate(382.7 293.52) rotate(-0.02)">M</text><text class="cls-14" transform="translate(388.2 293.52) rotate(-0.02)">r</text><text class="cls-13" transform="translate(389.8 293.52) rotate(-0.02)">. Sif.</text></g><text class="cls-15" transform="translate(2.13 207.27) rotate(-18.62)">M</text><text class="cls-16" transform="translate(7.92 205.32) rotate(-18.62)">r</text><text class="cls-17" transform="translate(9.59 204.76) rotate(-18.62)">. S</text><text class="cls-15" transform="translate(17.55 202.08) rotate(-18.62)">i</text><text class="cls-17" transform="translate(18.81 201.65) rotate(-18.62)">f</text><text class="cls-18" transform="translate(20.51 201.08) rotate(-18.62)">.</text><path class="cls-19" d="M68.51,72.5A108.48,108.48,0,0,1,212.86,219.16l11.82,56.07a4.26,4.26,0,0,1-3.37,5,4.08,4.08,0,0,1-1.74,0l-55.21-13A108.5,108.5,0,0,1,68.51,72.5ZM56,230.05v-.16a85.16,85.16,0,0,0,97.71,16.23l7.88-3.77,33.59,7.88-7-34.3,3.71-7.33a85.24,85.24,0,0,0-15.78-98.71A85,85,0,0,0,56,230.05Z"/><path class="cls-20" d="M56,114.31a85,85,0,0,1,120.12-4.42,85.24,85.24,0,0,1,15.78,98.71l-3.71,7.33,7,34.3-33.59-7.88-7.88,3.77A85.16,85.16,0,0,1,56,229.89v.16A85,85,0,0,1,56,114.31Zm3.12,91a35.29,35.29,0,0,0,18.75,15.93c14.36,3.48,36.43.09,64-25.71,23.88-21.91,30.2-40.45,28.7-55.18A34.87,34.87,0,0,0,157,119.57a8.43,8.43,0,0,0-1.76-1.11,7.88,7.88,0,0,0-10.46,3.88l-8.82,20.1a7.87,7.87,0,0,0,.93,7.88l4.5,5.77a7.91,7.91,0,0,1,.79,9.07,112.82,112.82,0,0,1-36.27,31.53A7.89,7.89,0,0,1,97.59,195l-5.21-5.29a7.89,7.89,0,0,0-7.88-2l-21,5.91a8.31,8.31,0,0,0-1.94.88A7.86,7.86,0,0,0,59.11,205.28Z"/><polygon class="cls-20" points="88.42 181.49 52.02 193.7 57.89 213.2 102.71 230.62 174.72 181.49 172.12 127.68 146.64 113.64 88.42 181.49"/><path class="cls-5" d="M171.82,194.78l-21.23-6a8,8,0,0,0-8,2.08l-5.27,5.35A8,8,0,0,1,129,198a114.18,114.18,0,0,1-36.71-31.92,8,8,0,0,1,.79-9.18L97.59,151a8,8,0,0,0,1-8l-8.94-20.35A8,8,0,0,0,79,118.79a8.18,8.18,0,0,0-1.79,1.13,35.24,35.24,0,0,0-13.8,21c-1.52,14.92,4.86,33.68,29.05,55.86,27.93,26.1,50.28,29.53,64.8,26a35.76,35.76,0,0,0,19-16.12,8,8,0,0,0-2.52-11A7.81,7.81,0,0,0,171.82,194.78Z"/><text class="cls-21" transform="translate(20.89 40.26)">ยก<tspan class="cls-22" x="11.06" y="0">C</tspan><tspan x="38.43" y="0">o</tspan><tspan class="cls-23" x="64.84" y="0">n</tspan><tspan class="cls-24" x="90.92" y="0">v</tspan><tspan x="113.57" y="0">ersa por</tspan><tspan class="cls-25" x="275.34" y="0"> </tspan><tspan class="cls-26" x="283.81" y="0">W</tspan><tspan x="324.26" y="0">h</tspan><tspan class="cls-27" x="350.96" y="0">a</tspan><tspan x="373.95" y="0">ts</tspan><tspan class="cls-28" x="408.92" y="0">A</tspan><tspan x="438.22" y="0">pp!</tspan></text></g></g></svg>