<svg xmlns="http://www.w3.org/2000/svg" viewBox="0 0 29.25 29.25"><g id="Capa_2" data-name="Capa 2"><g id="Capa_1-2" data-name="Capa 1"><path d="M14.63,7.06a7.57,7.57,0,1,0,7.56,7.57A7.57,7.57,0,0,0,14.63,7.06Zm0,12.19a4.63,4.63,0,1,1,4.62-4.62A4.62,4.62,0,0,1,14.63,19.25Z" style="fill:#fff"/><path d="M20.54,0H8.71A8.72,8.72,0,0,0,0,8.71V20.54a8.72,8.72,0,0,0,8.71,8.71H20.54a8.72,8.72,0,0,0,8.71-8.71V8.71A8.72,8.72,0,0,0,20.54,0Zm5.77,20.54a5.77,5.77,0,0,1-5.77,5.77H8.71a5.77,5.77,0,0,1-5.77-5.77V8.71A5.78,5.78,0,0,1,8.71,2.94H20.54a5.78,5.78,0,0,1,5.77,5.77Z" style="fill:#fff"/><path d="M22.21,5.3A1.82,1.82,0,1,0,24,7.12,1.83,1.83,0,0,0,22.21,5.3Z" style="fill:#fff"/></g></g></svg>