<svg id="Capa_1" data-name="Capa 1" xmlns="http://www.w3.org/2000/svg" viewBox="0 0 1175.53 908.38"><g id="Capa_2" data-name="Capa 2"><g id="Capa_1-2" data-name="Capa 1-2"><text transform="translate(665.78 738.39) scale(1.08 1)" style="isolation:isolate;font-size:383.3399353027344px;fill:#0d2c56;font-family:SegoeUI-Bold, Segoe UI;font-weight:700">Sif</text><path d="M972.57,886.25H351.69a9.52,9.52,0,0,1-8.21-9.16l-31.82-243c-1.29-10,3.94-19.47,11.25-21.21h0L914.76,476.18c7.51-1.74,14.67,4.95,16,14.89h0l50,382.37A11.21,11.21,0,0,1,974,886.25,6.65,6.65,0,0,1,972.57,886.25Z" transform="translate(-311.47 -149)" style="fill:#0d2c56"/><text transform="translate(438.57 737.94) scale(1.04 1)" style="isolation:isolate;font-size:395.7528991699219px;fill:#fff;font-family:SegoeUI-Bold, Segoe UI;font-weight:700;letter-spacing:-0.05899939416738716em">r</text><ellipse cx="583.2" cy="717.95" rx="19.82" ry="20.44" style="fill:#fff"/><polygon points="87.93 737.17 87.89 461.21 217.46 461.21 258.47 616.21 263.55 652.51 264.73 652.51 270.82 614.99 308.61 461.21 436.17 461.21 436.17 738.31 350.84 738.31 350.84 586.43 351.55 550.65 352.77 526.48 350.37 526.6 339.91 576.54 298.39 738.31 217.3 737.78 170.55 564.77 163.31 526.4 160.95 526.52 163.9 601.24 163.74 738.23 87.93 737.17" style="fill:#fff"/><path d="M914.49,867.27a20.87,20.87,0,0,1-11.8,19H886.53a21.12,21.12,0,0,1-9.83-27.68,20.21,20.21,0,0,1,17.69-12.07c11-.09,20,9,20.1,20.4Z" transform="translate(-311.47 -149)" style="fill:#fffb00"/></g></g><path d="M562.86,525.84a55.39,55.39,0,1,0-60.43,49.6,55.21,55.21,0,0,0,60.43-49.6" transform="translate(-311.47 -149)" style="fill:#002a56"/><path d="M536.46,498.09c.61-6.79-1.9-15.93-1.9-15.93-7.08.57-19.72,8.93-20.6,9.52-.31-.31-1.14-.75-3.4-.95s-3.16.08-3.52.33c-.75-.73-11.69-11.21-18.56-13,0,0-4.1,8.55-4.72,15.34s1.9,15.92,1.9,15.92c7.08-.56,19.73-8.94,20.6-9.52.31.31,1.14.75,3.4,1s3.16-.09,3.51-.33c.76.73,11.7,11.21,18.57,13,0,0,4.1-8.55,4.72-15.33" transform="translate(-311.47 -149)" style="fill:#efe044"/><path d="M511.51,521.12a3.83,3.83,0,1,1-3.45-4.17,3.83,3.83,0,0,1,3.45,4.17" transform="translate(-311.47 -149)" style="fill:#efe044"/><path d="M509.89,537.9a3.83,3.83,0,1,1-3.45-4.16,3.83,3.83,0,0,1,3.45,4.16" transform="translate(-311.47 -149)" style="fill:#efe044"/><text transform="matrix(1, 0.1, -0.1, 0.99, 201.99, 376.29)" style="font-size:12.451486587524414px;fill:#fff;font-family:Arial-BoldMT, Arial;font-weight:700"><tspan style="letter-spacing:-0.04996272739712676em">M</tspan><tspan x="9.75" y="0" style="letter-spacing:-0.10499979429552422em">r</tspan><tspan x="13.29" y="0" style="letter-spacing:-0.049025926258430635em">. Si</tspan><tspan x="29.53" y="0" style="letter-spacing:-0.05004079415868478em">f</tspan><tspan x="33.05" y="0">.</tspan></text><path d="M677.26,179.11c-30.17-10.24-55.8-7.94-62.74-1.16l-16.08,14.7a103.7,103.7,0,0,0-22.53,29.64L538.67,295.7a3.76,3.76,0,0,0,6.72,3.38l37.24-73.42a96.29,96.29,0,0,1,20.9-27.49L619,184a6,6,0,0,1,6-1.24L727.34,217.5c3.63-10.58-18.81-27.78-50.08-38.39" transform="translate(-311.47 -149)" style="fill:#e13d39"/><path d="M477.26,182.32l-15.62-20.57c-6.29-8.79-30.71-14.18-59.42-12.42-33,2-59.2,12.72-58.5,23.89l103.66-6.37a16,16,0,0,1,13.81,6.41l10,13.5a96.16,96.16,0,0,1,15.26,31L509,296.85a3.78,3.78,0,0,0,4.65,2.58,3.73,3.73,0,0,0,2.59-4.62l-22.5-79.14a103.09,103.09,0,0,0-16.45-33.35" transform="translate(-311.47 -149)" style="fill:#e13d39"/><path d="M642,390.27c5.11-52.9-45.14-101-112.24-107.4S404.12,314.13,399,367s45.14,101,112.24,107.4S636.87,443.17,642,390.27" transform="translate(-311.47 -149)" style="fill:#e13d39"/><path d="M418.53,325.83c-2.42,25,12.68,46.92,33.73,48.93s40.05-16.63,42.47-41.64S482.05,286.2,461,284.19s-40.06,16.63-42.47,41.64" transform="translate(-311.47 -149)" style="fill:#fff"/><path d="M418.53,325.83c-2.42,25,12.68,46.92,33.73,48.93s40.05-16.63,42.47-41.64S482.05,286.2,461,284.19,420.94,300.82,418.53,325.83Z" transform="translate(-311.47 -149)" style="fill:none;stroke:#d43c38;stroke-miterlimit:10;stroke-width:3.0145367784277273px"/><path d="M426.21,326.57c-1.86,19.28,9.78,36.17,26,37.72s30.88-12.82,32.74-32.1-9.78-36.17-26-37.73-30.88,12.82-32.75,32.11" transform="translate(-311.47 -149)" style="fill:#94bd5d"/><path d="M433.41,336c-1.35,14,7.11,26.28,18.9,27.41s22.43-9.32,23.78-23.32-7.1-26.28-18.88-27.41S434.77,322,433.41,336" transform="translate(-311.47 -149)" style="fill:#0e0e1b"/><path d="M439.12,315.24c-.42,4.36,2.21,8.19,5.88,8.54s7-2.9,7.41-7.27-2.21-8.18-5.88-8.54-7,2.91-7.41,7.27" transform="translate(-311.47 -149)" style="fill:#fff"/><path d="M436.37,351.69c-.27,2.72,1.38,5.09,3.67,5.31s4.35-1.8,4.61-4.52-1.38-5.1-3.66-5.32-4.36,1.81-4.62,4.53" transform="translate(-311.47 -149)" style="fill:#fff"/><path d="M624.57,345.54c-2.41,25-21.43,43.66-42.47,41.64S546,363.26,548.37,338.25s21.43-43.65,42.47-41.64,36.15,23.92,33.73,48.93" transform="translate(-311.47 -149)" style="fill:#fff"/><path d="M624.57,345.54c-2.41,25-21.43,43.66-42.47,41.64S546,363.26,548.37,338.25s21.43-43.65,42.47-41.64S627,320.53,624.57,345.54Z" transform="translate(-311.47 -149)" style="fill:none;stroke:#d43c38;stroke-miterlimit:10;stroke-width:3.6588756599146754px"/><path d="M616.9,344.8c-1.86,19.29-16.53,33.66-32.75,32.11s-27.86-18.44-26-37.72,16.52-33.66,32.74-32.11,27.87,18.44,26,37.72" transform="translate(-311.47 -149)" style="fill:#94bd5d"/><path d="M608,352.72c-1.35,14-12,24.45-23.79,23.32s-20.24-13.39-18.89-27.4,12-24.45,23.79-23.32,20.25,13.4,18.89,27.4" transform="translate(-311.47 -149)" style="fill:#0e0e1b"/><path d="M606.39,331.25c-.42,4.36-3.73,7.62-7.41,7.27s-6.3-4.18-5.88-8.54,3.74-7.62,7.41-7.27,6.31,4.18,5.88,8.54" transform="translate(-311.47 -149)" style="fill:#fff"/><path d="M602.12,367.54c-.26,2.72-2.33,4.74-4.62,4.52s-3.92-2.6-3.66-5.32,2.33-4.74,4.61-4.52,3.93,2.6,3.67,5.32" transform="translate(-311.47 -149)" style="fill:#fff"/><path d="M564,414.63a1.77,1.77,0,0,1,1.39,3l-12.09,12-13,12.93-1.84,1.8-10.2,10.07a19.45,19.45,0,0,1-29.74-2.85l-6.13-9-1-1.47-2.37-3.45L469,408.43a1.77,1.77,0,0,1,1.94-2.7c10.52,2.95,35.87,9.85,45.9,10.81s36.23-1,47.12-1.91" transform="translate(-311.47 -149)" style="fill:#0e0e1b"/><path d="M553.26,429.62l-13,12.93-1.85,1.81-10.19,10.06a19.46,19.46,0,0,1-29.74-2.84l-6.14-9-1-1.48c3.4-5.1,9.67-8.72,17-9.13a23.17,23.17,0,0,1,13,3c3.34-5.27,9.71-9,17.22-9.48a22.77,22.77,0,0,1,14.72,4.12" transform="translate(-311.47 -149)" style="fill:#eba0a7"/><path d="M590.68,286.54a54,54,0,0,0-38.51,11,21,21,0,0,1-1.71,1.31l0,0a39.59,39.59,0,0,1-51.88-4.27,30.85,30.85,0,0,0-3.5-4.11h0a54.19,54.19,0,0,0-90.88,19.57l3.59.36a50.7,50.7,0,0,1,97.89,9.73l3.59.35c-.1-.79-.21-1.58-.35-2.37,2.67-4.67,7.57-4,13.28-3.41,5.87.58,10.86,1,12.49,6.32v0c-.24.62-.46,1.26-.68,1.9l3.62.36a50.69,50.69,0,0,1,97.88,9.73l3.6.36a54.06,54.06,0,0,0-48.37-46.92m-81.83,31.64a53.3,53.3,0,0,0-10.32-23.51,1.34,1.34,0,0,1-.11-.14l.1.11,0,0a53.6,53.6,0,0,1,10.37,23.57v0a0,0,0,0,0,0,0" transform="translate(-311.47 -149)" style="fill:#0e0e1b"/><path d="M507.67,332.44a52.44,52.44,0,1,0-57.39,46.75A52.24,52.24,0,0,0,507.67,332.44Z" transform="translate(-311.47 -149)" style="fill:none;stroke:#0e0e1b;stroke-miterlimit:10;stroke-width:1.3303779674976186px"/><path d="M637.85,345.38a52.44,52.44,0,1,0-57.39,46.75A52.25,52.25,0,0,0,637.85,345.38Z" transform="translate(-311.47 -149)" style="fill:none;stroke:#0e0e1b;stroke-miterlimit:10;stroke-width:1.3303779674976186px"/><path d="M501.32,545.85l72.29,4a1.33,1.33,0,0,0,1.3-1.84c-5.14-11.85-22.43-38-29-47.76-1.33-2,3.17-4.74,4.1-3.47,7.72,10.52,38,44.52,40.46,63,.24,1.82-2.29,2.86-4.1,3.2l-81.86-1.7Z" transform="translate(-311.47 -149)" style="fill:#e13d39"/><path d="M505.85,554.21c.9,13.58-13.19,24.62-31.49,24.66-11.05,0-21.11-4-27.54-10.13a4.87,4.87,0,0,1,1.59-8.28l24.44-9.13-13.47-11.88a4.9,4.9,0,0,1,2.06-8.67,42.52,42.52,0,0,1,9.6-1.08c18.29,0,33.88,10.93,34.81,24.51" transform="translate(-311.47 -149)" style="fill:#e13d39"/><path d="M418.34,602.11s15.35-56,23.45-70.65c7.6-13.75,26.77-34.15,33.2-40.66a1.68,1.68,0,0,0-.16-2.51l-.33-.26a1.7,1.7,0,0,0-2.12,0c-6.43,5.18-31.61,24.56-41.11,37.9-11.24,15.77-36,75.06-36,75.06Z" transform="translate(-311.47 -149)" style="fill:#e13d39"/><path d="M412.77,599.17c-13.53-4.43-29,5.55-34.52,22.27-3.33,10.1-2.3,20.35,2,27.87a5.45,5.45,0,0,0,8.89.74l16.62-19.95,8,15.47a5.46,5.46,0,0,0,9.44.41,39.25,39.25,0,0,0,4-8.5c5.52-16.72-.94-33.87-14.45-38.31" transform="translate(-311.47 -149)" style="fill:#e13d39"/></svg>