<?xml version="1.0" encoding="utf-8"?>
<!-- Generator: Adobe Illustrator 25.0.0, SVG Export Plug-In . SVG Version: 6.00 Build 0)  -->
<svg version="1.1" id="Capa_1" xmlns="http://www.w3.org/2000/svg" xmlns:xlink="http://www.w3.org/1999/xlink" x="0px" y="0px"
	 viewBox="0 0 307.7 319.7" style="enable-background:new 0 0 307.7 319.7;" xml:space="preserve">
<style type="text/css">
	.st0{fill:#D3D3D4;}
	.st1{fill:#103469;}
	.st2{fill:#06284D;}
	.st3{fill:#EA8A00;}
	.st4{fill:#CC6D00;}
	.st5{fill:#F0F0EF;}
	.st6{fill:#F4AB13;}
	.st7{fill:#FFFFFF;}
	.st8{fill:#F8C00A;}
	.st9{fill:#3869A4;}
	.st10{fill:#1C4E85;}
	.st11{fill:#85C3D5;}
	.st12{fill:#002A56;}
	.st13{fill:#E13D39;}
	.st14{fill:#EFE044;}
	.st15{font-family:'Arial-BoldMT';}
	.st16{font-size:5.9699px;}
	.st17{fill:none;stroke:#D43C38;stroke-width:1.442;stroke-miterlimit:10;}
	.st18{fill:#94BD5D;}
	.st19{fill:#0E0E1B;}
	.st20{fill:none;stroke:#D43C38;stroke-width:1.75;stroke-miterlimit:10;}
	.st21{fill:#EBA0A7;}
	.st22{fill:none;stroke:#0E0E1B;stroke-width:0.63;stroke-miterlimit:10;}
</style>
<g>
	<rect x="37.6" y="155" class="st0" width="99.5" height="15.5"/>
	<polygon class="st1" points="168.9,270.4 153.1,169.1 25.4,169.1 9.6,270.4 	"/>
	<polygon class="st2" points="18.3,265.2 160.2,265.2 146,174.3 32.5,174.3 	"/>
	<polygon class="st3" points="102.1,163.1 109.1,152 146.7,152 146.7,210.8 31.8,210.8 31.8,163.1 	"/>
	<polygon class="st4" points="138.1,152 138.1,177.9 31.8,177.9 31.8,210.8 146.7,210.8 146.7,152 	"/>
	<rect x="36" y="183.3" class="st5" width="102.7" height="15.5"/>
	<polygon class="st6" points="102.9,191.4 110.2,179.7 150,179.7 150,241.9 28.5,241.9 28.5,191.4 	"/>
	<polygon class="st3" points="140.9,179.7 140.9,203.1 28.5,203.1 28.5,241.9 150,241.9 150,179.7 	"/>
	<rect x="31.8" y="209.9" class="st7" width="111" height="15.5"/>
	<polygon class="st8" points="104.1,217.4 112,204.7 155.2,204.7 155.2,272.2 23.3,272.2 23.3,217.4 	"/>
	<polygon class="st8" points="104.1,219.1 112,206.4 155.2,206.4 155.2,273.9 23.3,273.9 23.3,219.1 	"/>
	<polygon class="st6" points="147.4,204.7 147.4,238.2 23.3,238.2 23.3,272.2 155.2,272.2 155.2,204.7 	"/>
	<rect x="3.7" y="245.3" class="st9" width="85.6" height="70.7"/>
	<rect x="89.3" y="245.3" class="st10" width="85.6" height="70.7"/>
	<rect y="241.6" class="st10" width="89.3" height="78.1"/>
	<rect x="89.3" y="241.6" class="st1" width="89.2" height="78.1"/>
	<rect x="3.7" y="245.3" class="st9" width="85.6" height="70.7"/>
	<rect x="3.7" y="245.3" class="st9" width="85.6" height="70.7"/>
	<rect x="89.3" y="245.3" class="st10" width="85.6" height="70.7"/>
	<rect x="89.3" y="298.1" class="st1" width="19.8" height="9.3"/>
	<rect x="69.5" y="298.1" class="st10" width="19.8" height="9.3"/>
	<path class="st11" d="M25.6,274c0,3.6-3,6.6-6.6,6.6c-3.6,0-6.6-3-6.6-6.6v-15.2c0-3.6,3-6.6,6.6-6.6c3.6,0,6.6,3,6.6,6.6V274z"/>
	<path class="st12" d="M240.8,223.3c0,5.8-1.2,11.3-3.3,16.2c-4.8,11.1-14.4,18.6-25.4,18.6s-20.6-7.5-25.4-18.6
		c-2.1-4.8-3.3-10.3-3.3-16.2c0-1.1,0-2.1,0.1-3.2c0.4-5.1,1.7-9.9,3.7-14.1c5-10.5,14.3-17.5,24.9-17.5s20,7,24.9,17.5
		c2,4.2,3.3,9,3.7,14.1C240.7,221.1,240.8,222.2,240.8,223.3"/>
	<path class="st13" d="M240.8,223.3c0,5.8-1.2,11.3-3.3,16.2c-7.3,4.8-16.1,7.5-25.4,7.5c-9.4,0-18.1-2.8-25.4-7.5
		c-2.1-4.8-3.3-10.3-3.3-16.2c0-1.1,0-2.1,0.1-3.2c0.4-5.1,1.7-9.9,3.7-14.1c5-10.5,14.3-17.5,24.9-17.5s20,7,24.9,17.5
		c2,4.2,3.3,9,3.7,14.1C240.7,221.1,240.8,222.2,240.8,223.3"/>
	<path class="st12" d="M240.6,220.1c-7.9,6.1-17.8,9.8-28.6,9.8s-20.7-3.6-28.6-9.8c0.4-5.1,1.7-9.9,3.7-14.1
		c5-10.5,14.3-17.5,24.9-17.5s20,7,24.9,17.5C239,210.2,240.3,215,240.6,220.1"/>
	<path class="st13" d="M237,206c-7.2,4.6-15.8,7.2-24.9,7.2c-9.1,0-17.7-2.6-24.9-7.2c5-10.5,14.3-17.5,24.9-17.5S232,195.6,237,206
		"/>
	<path class="st12" d="M238.9,173.4c0-14.6-11.8-26.4-26.4-26.4c-14.6,0-26.4,11.8-26.4,26.4c0,14.6,11.8,26.4,26.4,26.4
		C227.1,199.8,238.9,187.9,238.9,173.4"/>
	<path class="st14" d="M225.1,161.3c0-3.3-1.6-7.5-1.6-7.5c-3.3,0.6-9,5.2-9.3,5.5c-0.2-0.1-0.6-0.3-1.7-0.3c-1.1,0-1.5,0.2-1.7,0.3
		c-0.4-0.3-6.1-4.8-9.4-5.4c0,0-1.6,4.3-1.5,7.5c0,3.3,1.6,7.5,1.6,7.5c3.3-0.6,9-5.2,9.3-5.5c0.2,0.1,0.6,0.3,1.7,0.3
		c1.1,0,1.5-0.2,1.7-0.3c0.4,0.3,6.1,4.8,9.4,5.4C223.6,168.8,225.1,164.6,225.1,161.3"/>
	<path class="st14" d="M214.3,173.4c0,1-0.8,1.8-1.8,1.8s-1.8-0.8-1.8-1.8c0-1,0.8-1.8,1.8-1.8S214.3,172.4,214.3,173.4"/>
	<path class="st14" d="M214.3,181.5c0,1-0.8,1.8-1.8,1.8s-1.8-0.8-1.8-1.8c0-1,0.8-1.8,1.8-1.8S214.3,180.5,214.3,181.5"/>
	<text transform="matrix(1 6.780000e-03 -6.780000e-03 1 215.5605 175.3987)"><tspan x="0" y="0" class="st7 st15 st16">M</tspan><tspan x="4.7" y="0" class="st7 st15 st16">r</tspan><tspan x="6.4" y="0" class="st7 st15 st16">. Si</tspan><tspan x="14.2" y="0" class="st7 st15 st16">f</tspan><tspan x="15.8" y="0" class="st7 st15 st16">.</tspan></text>
	<path class="st13" d="M277.4,2.6c-14.8-3.5-26.9-1.2-29.9,2.3l-7,7.7c-4,4.5-7.2,9.6-9.3,15.2l-14.3,36.7c-0.4,0.9,0.1,2,1,2.3
		c0.9,0.4,2-0.1,2.3-1l14.3-36.7c2-5.2,5-9.9,8.7-14.1l6.7-7.5c0.7-0.8,1.8-1.1,2.8-0.9l50.2,11.9C304.1,13.5,292.7,6.3,277.4,2.6"
		/>
	<path class="st13" d="M182.5,13.3l-8.4-9.1c-3.4-3.9-15.2-5.4-28.8-3.2c-15.6,2.5-27.5,8.8-26.7,14.1l49-7.8
		c2.5-0.4,5.1,0.5,6.9,2.4l5.4,6c3.7,4.1,6.6,8.9,8.7,14.1l14.3,36.7c0.4,0.9,1.4,1.4,2.3,1c0.9-0.4,1.4-1.4,1-2.3l-14.3-36.7
		C189.7,22.9,186.5,17.8,182.5,13.3"/>
	<path class="st13" d="M281.9,121.6c0,0-17.4,21.7-23.7,26.6c-5.9,4.6-23.7,11.9-27.7,13.6c-0.4,0.2-0.6,0.7-0.4,1.1l0.1,0.2
		c0.2,0.3,0.6,0.5,0.9,0.4c3.8-1.1,24-6.8,30.7-10.9c7.9-4.8,30.1-26.2,30.1-26.2L281.9,121.6z"/>
	<path class="st13" d="M283.8,123.9c5.1,4.5,13.7,3.1,19.4-3.3c3.4-3.8,4.9-8.5,4.4-12.6c-0.2-1.8-2.1-2.8-3.8-2l-11.1,5.6l-0.6-8.3
		c-0.1-2-2.4-3.1-4.1-2c-1.2,0.8-2.3,1.8-3.4,3C279.2,110.6,278.7,119.4,283.8,123.9"/>
	<path class="st13" d="M163.6,206l-3-11.9c-0.2-0.9,0-1.8,0.6-2.4c6.5-7.3,27.4-25.6,31.3-28.4c0.5-0.3,0.6-1,0.2-1.5
		c-0.3-0.4-0.8-0.4-1.2-0.2c-3.8,2.1-28.7,20.8-36.3,27.8c-0.6,0.6-1,1.5-0.9,2.3l1.8,15.1L163.6,206z"/>
	<path class="st13" d="M161,205.3c-6.5-0.4-11.8,6.4-11.7,15.1c0,5.3,2,10.1,4.9,13.1c1.3,1.3,3.3,0.9,4-0.8l4.3-11.7l5.7,6.4
		c1.4,1.5,3.7,1,4.2-1c0.3-1.4,0.5-3,0.5-4.6C172.9,213.1,167.6,205.7,161,205.3"/>
	<path class="st13" d="M270.3,105c0-25.5-26.1-46.1-58.2-46.1c-32.2,0-58.2,20.7-58.2,46.1c0,25.5,26.1,46.1,58.2,46.1
		C244.2,151.2,270.3,130.5,270.3,105"/>
	<path class="st7" d="M161.2,84.5c0,12,8.2,21.8,18.3,21.8c10.1,0,18.3-9.8,18.3-21.8c0-12-8.2-21.8-18.3-21.8
		C169.4,62.7,161.2,72.4,161.2,84.5"/>
	<path class="st17" d="M161.2,84.5c0,12,8.2,21.8,18.3,21.8c10.1,0,18.3-9.8,18.3-21.8c0-12-8.2-21.8-18.3-21.8
		C169.4,62.7,161.2,72.4,161.2,84.5z"/>
	<path class="st18" d="M164.9,84.5c0,9.3,6.3,16.8,14.1,16.8c7.8,0,14.1-7.5,14.1-16.8c0-9.3-6.3-16.8-14.1-16.8
		C171.2,67.7,164.9,75.2,164.9,84.5"/>
	<path class="st19" d="M168.7,88.7c0,6.7,4.6,12.2,10.2,12.2c5.6,0,10.2-5.5,10.2-12.2c0-6.7-4.6-12.2-10.2-12.2
		C173.3,76.4,168.7,81.9,168.7,88.7"/>
	<path class="st7" d="M170.5,78.5c0,2.1,1.4,3.8,3.2,3.8c1.8,0,3.2-1.7,3.2-3.8c0-2.1-1.4-3.8-3.2-3.8
		C171.9,74.7,170.5,76.4,170.5,78.5"/>
	<path class="st7" d="M170.8,96c0,1.3,0.9,2.4,2,2.4c1.1,0,2-1.1,2-2.4c0-1.3-0.9-2.4-2-2.4C171.7,93.6,170.8,94.7,170.8,96"/>
	<path class="st7" d="M260,84.5c0,12-8.2,21.8-18.3,21.8c-10.1,0-18.3-9.8-18.3-21.8c0-12,8.2-21.8,18.3-21.8
		C251.8,62.7,260,72.4,260,84.5"/>
	<path class="st20" d="M260,84.5c0,12-8.2,21.8-18.3,21.8c-10.1,0-18.3-9.8-18.3-21.8c0-12,8.2-21.8,18.3-21.8
		C251.8,62.7,260,72.4,260,84.5z"/>
	<path class="st18" d="M256.3,84.5c0,9.3-6.3,16.8-14.1,16.8c-7.8,0-14.1-7.5-14.1-16.8c0-9.3,6.3-16.8,14.1-16.8
		C250,67.7,256.3,75.2,256.3,84.5"/>
	<path class="st19" d="M252.4,88.7c0,6.7-4.6,12.2-10.2,12.2c-5.6,0-10.2-5.5-10.2-12.2c0-6.7,4.6-12.2,10.2-12.2
		C247.8,76.4,252.4,81.9,252.4,88.7"/>
	<path class="st7" d="M250.7,78.5c0,2.1-1.4,3.8-3.2,3.8c-1.8,0-3.2-1.7-3.2-3.8c0-2.1,1.4-3.8,3.2-3.8
		C249.2,74.7,250.7,76.4,250.7,78.5"/>
	<path class="st7" d="M250.3,96c0,1.3-0.9,2.4-2,2.4c-1.1,0-2-1.1-2-2.4c0-1.3,0.9-2.4,2-2.4C249.4,93.6,250.3,94.7,250.3,96"/>
	<path class="st19" d="M234.3,120.2c0.8-0.1,1.3,0.8,0.8,1.4l-5.2,6.3l-5.6,6.8l-0.8,0.9l-4.4,5.3c-3.7,4.5-10.5,4.5-14.3,0l-3.3-4
		l-0.6-0.7l-1.3-1.5l-10.8-13c-0.5-0.6,0-1.5,0.8-1.4c5.1,0.9,17.5,3.1,22.3,3.1C216.8,123.3,229.2,121.1,234.3,120.2"/>
	<path class="st21" d="M229.9,127.9l-5.6,6.8l-0.8,0.9l-4.4,5.3c-3.7,4.5-10.6,4.5-14.3,0l-3.3-4l-0.6-0.7c1.4-2.6,4.2-4.6,7.7-5.1
		c2.3-0.4,4.5,0,6.3,0.8c1.3-2.7,4.2-4.8,7.7-5.3C225.4,126.2,228,126.7,229.9,127.9"/>
	<polygon class="st13" points="211.5,293.6 224.7,238.1 222.8,237.2 198.6,296.6 	"/>
	<polygon class="st13" points="231.5,288.1 195.1,267.9 202.6,238.9 204,236.9 204.2,264.7 236.5,278.3 	"/>
	<path class="st13" d="M236.7,277.8l0.4,39c-7.6,0.1-13.8-8.6-13.9-19.4C223.1,286.7,229.2,277.9,236.7,277.8"/>
	<path class="st13" d="M215,302c1.6,8.5-0.7,16-5.1,16.9c-4.4,0.8-9.3-5.4-10.8-13.9c-1.6-8.5,0.7-16,5.1-16.9
		C208.6,287.3,213.4,293.5,215,302"/>
	<path class="st19" d="M241.4,59.2c-6.8,0-13,2.7-17.6,7c-0.2,0.3-0.5,0.5-0.7,0.7c0,0,0,0,0,0c-3.3,3-7.7,4.8-12.5,4.8
		c-4.6,0-8.8-1.7-12.1-4.4c-0.6-0.6-1.2-1.3-1.8-1.8h0c-4.5-4-10.4-6.4-16.9-6.4c-12.2,0-22.3,8.5-24.9,19.9h1.7
		c2.6-10.5,12-18.2,23.2-18.2c11.2,0,20.7,7.8,23.2,18.2h1.7c-0.1-0.4-0.2-0.7-0.3-1.1c1-2.3,3.4-2.2,6.1-2.2c2.8,0,5.2,0,6.2,2.4
		c0,0,0,0,0,0c-0.1,0.3-0.2,0.6-0.2,0.9h1.7c2.6-10.5,12-18.2,23.2-18.2c11.2,0,20.7,7.8,23.2,18.2h1.7
		C263.8,67.7,253.6,59.2,241.4,59.2 M204.5,78c-1.1-4-3.2-7.7-6-10.6c0,0,0,0-0.1-0.1c0,0,0,0,0.1,0c0,0,0,0,0,0
		C201.3,70.3,203.4,74,204.5,78C204.5,78,204.5,78,204.5,78C204.5,78,204.5,78,204.5,78"/>
	<path class="st22" d="M204.6,84.8c0-13.7-11.1-24.8-24.8-24.8c-13.7,0-24.8,11.1-24.8,24.8c0,13.7,11.1,24.8,24.8,24.8
		C193.5,109.5,204.6,98.4,204.6,84.8z"/>
	<path class="st22" d="M266.4,84.8c0-13.7-11.1-24.8-24.8-24.8c-13.7,0-24.8,11.1-24.8,24.8c0,13.7,11.1,24.8,24.8,24.8
		C255.3,109.5,266.4,98.4,266.4,84.8z"/>
</g>
</svg>
