<svg xmlns="http://www.w3.org/2000/svg" viewBox="0 0 27.53 27.75"><g id="Capa_2" data-name="Capa 2"><g id="Capa_1-2" data-name="Capa 1"><path d="M13.09,0A13.77,13.77,0,0,0,1.5,20L0,27.11a.54.54,0,0,0,.65.63l7-1.65A13.76,13.76,0,1,0,13.09,0Zm8.3,21.36A10.8,10.8,0,0,1,9,23.42l-1-.48-4.26,1,.89-4.35-.47-.93a10.81,10.81,0,0,1,2-12.52A10.78,10.78,0,0,1,21.39,21.38Z" style="fill:#fff"/><path d="M20.44,16.75,17.78,16a1,1,0,0,0-1,.26l-.66.67a1,1,0,0,1-1.05.22,14.3,14.3,0,0,1-4.6-4A1,1,0,0,1,10.57,12l.57-.73a1,1,0,0,0,.12-1L10.14,7.72a1,1,0,0,0-1.55-.35A4.42,4.42,0,0,0,6.86,10c-.19,1.87.61,4.22,3.64,7,3.5,3.27,6.3,3.7,8.12,3.26A4.48,4.48,0,0,0,21,18.24,1,1,0,0,0,20.44,16.75Z" style="fill:#fff"/></g></g></svg>